<svg width="118" height="63" viewBox="0 0 118 63" fill="none" xmlns="http://www.w3.org/2000/svg">
<path fill-rule="evenodd" clip-rule="evenodd" d="M0 22V44H2.72525H5.45051L5.53884 26.9705L5.62717 9.94062L14.3036 22.734C19.0758 29.7701 23.0346 35.4732 23.1011 35.4076C23.1672 35.3417 27.7818 28.5342 33.3558 20.2794L43.4898 5.27118L58.1508 5.17816C71.0186 5.09664 72.9919 5.15279 74.28 5.63614C76.8569 6.60284 78.2398 9.82528 77.409 12.928C76.9282 14.7251 75.9794 15.8142 74.1763 16.6395C72.9182 17.2152 71.6778 17.2646 58.2327 17.2714L43.6532 17.2788V19.8028V22.3267L59.4536 22.4242L75.254 22.5216L76.9319 23.538C79.3158 24.9819 80.4855 27.3256 80.4855 30.6587C80.4855 34.3198 79.2919 36.5867 76.6164 38.0057C75.2192 38.7467 74.9791 38.7586 59.4263 38.8546L43.6532 38.9521V41.476V44H80.8266H118V41.4632V38.9264H100.914H83.8284L84.5368 37.7361C85.8181 35.5821 86.376 32.9763 86.2137 29.9064C86.0861 27.4968 85.8846 26.7347 84.841 24.7171L83.6177 22.3524H100.809H118V19.8156V17.2788H99.636H81.272L82.1577 15.503C82.9196 13.9752 83.0406 13.3021 83.0243 10.6831C83.0113 8.63568 82.8217 7.22352 82.4448 6.37047L81.8845 5.10206H99.9422H118V2.56523V0.0284123H79.5163H41.0326L32.052 13.3975C27.1127 20.7505 22.9473 26.6434 22.7958 26.4932C22.6441 26.3427 18.6246 20.3646 13.8633 13.2084L5.20701 0.197534L2.6035 0.0987669L0 0V22Z" fill="#F5F5F5"/>
<path d="M7.755 59.955C6.875 60.7397 5.84467 61.132 4.664 61.132C3.48333 61.132 2.53367 60.7543 1.815 59.999C1.10367 59.2363 0.748 58.2867 0.748 57.15C0.748 56.0647 1.111 55.1297 1.837 54.345C2.563 53.5603 3.487 53.168 4.609 53.168C5.225 53.168 5.753 53.2523 6.193 53.421C6.64033 53.5897 7.06933 53.8463 7.48 54.191L6.919 54.851C6.24433 54.2643 5.46333 53.971 4.576 53.971C3.73267 53.971 3.03233 54.2827 2.475 54.906C1.925 55.522 1.65 56.27 1.65 57.15C1.65 58.0813 1.925 58.8477 2.475 59.449C3.03233 60.0503 3.773 60.351 4.697 60.351C5.54767 60.351 6.28833 60.0943 6.919 59.581V57.667H4.576V56.886H7.755V59.955ZM28.715 61V53.3H32.026C32.972 53.3 33.7016 53.5567 34.215 54.07C34.611 54.466 34.809 54.9793 34.809 55.61C34.809 56.226 34.6183 56.7247 34.237 57.106C33.8556 57.4873 33.3496 57.7367 32.719 57.854L35.084 61H34.017L31.784 58.008H29.584V61H28.715ZM29.584 57.227H31.949C32.5356 57.227 33.0123 57.084 33.379 56.798C33.7456 56.512 33.929 56.1197 33.929 55.621C33.929 55.1443 33.753 54.774 33.401 54.51C33.0563 54.2387 32.576 54.103 31.96 54.103H29.584V57.227ZM62.0662 59.966C61.3255 60.7433 60.3832 61.132 59.2392 61.132C58.0952 61.132 57.1565 60.7433 56.4232 59.966C55.6899 59.1887 55.3232 58.25 55.3232 57.15C55.3232 56.0573 55.6935 55.1223 56.4342 54.345C57.1749 53.5603 58.1172 53.168 59.2612 53.168C60.4052 53.168 61.3439 53.5567 62.0772 54.334C62.8105 55.1113 63.1772 56.05 63.1772 57.15C63.1772 58.2427 62.8069 59.1813 62.0662 59.966ZM57.0832 59.405C57.6625 60.021 58.3885 60.329 59.2612 60.329C60.1339 60.329 60.8525 60.0247 61.4172 59.416C61.9892 58.8 62.2752 58.0447 62.2752 57.15C62.2752 56.2627 61.9855 55.511 61.4062 54.895C60.8342 54.279 60.1119 53.971 59.2392 53.971C58.3665 53.971 57.6442 54.279 57.0722 54.895C56.5075 55.5037 56.2252 56.2553 56.2252 57.15C56.2252 58.0373 56.5112 58.789 57.0832 59.405ZM87.0899 61.121C86.1146 61.121 85.3372 60.8313 84.7579 60.252C84.1786 59.6653 83.8889 58.8403 83.8889 57.777V53.3H84.7579V57.722C84.7579 58.5507 84.9632 59.1923 85.3739 59.647C85.7919 60.0943 86.3712 60.318 87.1119 60.318C87.8379 60.318 88.4062 60.1017 88.8169 59.669C89.2276 59.2363 89.4329 58.6057 89.4329 57.777V53.3H90.3019V57.711C90.3019 58.811 90.0122 59.6543 89.4329 60.241C88.8536 60.8277 88.0726 61.121 87.0899 61.121ZM111.357 61V53.3H114.239C115.119 53.3 115.819 53.52 116.34 53.96C116.86 54.4 117.121 55.0013 117.121 55.764C117.121 56.5633 116.831 57.183 116.252 57.623C115.68 58.063 114.961 58.283 114.096 58.283H112.226V61H111.357ZM112.226 57.491H114.129C114.767 57.491 115.276 57.337 115.658 57.029C116.046 56.7137 116.241 56.2957 116.241 55.775C116.241 55.2397 116.054 54.829 115.68 54.543C115.313 54.2497 114.811 54.103 114.173 54.103H112.226V57.491Z" fill="#F5F5F5"/>
</svg>
