<svg width="92" height="72" viewBox="0 0 92 72" fill="none" xmlns="http://www.w3.org/2000/svg">
<path d="M42.3 55.3C45.7667 50.7667 47.5 44.3333 47.5 36C47.5 27.6667 45.7667 21.2667 42.3 16.8C38.8333 12.2667 34.5667 10 29.5 10C24.4333 10 20.1667 12.2667 16.7 16.8C13.2333 21.2667 11.5 27.6667 11.5 36C11.5 44.3333 13.2333 50.7667 16.7 55.3C20.1667 59.7667 24.4333 62 29.5 62C34.5667 62 38.8333 59.7667 42.3 55.3ZM50.2 62.4C44.6667 68.8 37.7667 72 29.5 72C21.2333 72 14.3333 68.8 8.8 62.4C3.26667 55.9333 0.5 47.1333 0.5 36C0.5 24.8667 3.26667 16.1 8.8 9.7C14.3333 3.23333 21.2333 -3.8147e-06 29.5 -3.8147e-06C37.7667 -3.8147e-06 44.6667 3.23333 50.2 9.7C55.7333 16.1 58.5 24.8667 58.5 36C58.5 47.1333 55.7333 55.9333 50.2 62.4ZM80.043 71V17.5H67.543V10.5C71.8096 9.96666 75.043 8.93333 77.243 7.4C79.443 5.86666 81.2096 3.73333 82.543 0.999995H91.043V71H80.043Z" fill="#EBC981"/>
</svg>
