<svg width="115" height="72" viewBox="0 0 115 72" fill="none" xmlns="http://www.w3.org/2000/svg">
<path d="M41.9665 55.3C45.4332 50.7667 47.1665 44.3333 47.1665 36C47.1665 27.6667 45.4332 21.2667 41.9665 16.8C38.4998 12.2667 34.2332 10 29.1665 10C24.0998 10 19.8332 12.2667 16.3665 16.8C12.8998 21.2667 11.1665 27.6667 11.1665 36C11.1665 44.3333 12.8998 50.7667 16.3665 55.3C19.8332 59.7667 24.0998 62 29.1665 62C34.2332 62 38.4998 59.7667 41.9665 55.3ZM49.8665 62.4C44.3332 68.8 37.4332 72 29.1665 72C20.8998 72 13.9998 68.8 8.46651 62.4C2.93317 55.9333 0.166504 47.1333 0.166504 36C0.166504 24.8667 2.93317 16.1 8.46651 9.7C13.9998 3.23333 20.8998 -3.8147e-06 29.1665 -3.8147e-06C37.4332 -3.8147e-06 44.3332 3.23333 49.8665 9.7C55.3998 16.1 58.1665 24.8667 58.1665 36C58.1665 47.1333 55.3998 55.9333 49.8665 62.4ZM80.2095 60.5H114.209V71H67.2095C67.2095 66.7333 67.8761 62.8333 69.2095 59.3C70.5428 55.7667 72.2428 52.8 74.3095 50.4C76.4428 48 78.7761 45.8 81.3095 43.8C83.9095 41.7333 86.4761 39.8667 89.0095 38.2C91.6095 36.5333 93.9428 34.9 96.0095 33.3C98.1428 31.7 99.8761 29.9 101.209 27.9C102.543 25.9 103.209 23.7667 103.209 21.5C103.209 18.1667 102.109 15.5 99.9095 13.5C97.7095 11.5 94.6428 10.5 90.7095 10.5C86.3761 10.5 82.8095 12.1 80.0095 15.3C78.8761 16.5667 77.9428 18.1333 77.2095 20L68.2095 16C69.0761 13.0667 70.5095 10.4 72.5095 7.99999C76.9095 2.66666 82.9761 -3.8147e-06 90.7095 -3.8147e-06C97.5761 -3.8147e-06 103.209 2.06666 107.609 6.2C112.009 10.3333 114.209 15.4333 114.209 21.5C114.209 24.7 113.543 27.6667 112.209 30.4C110.876 33.1333 109.176 35.4333 107.109 37.3C105.109 39.1 102.776 40.9667 100.109 42.9C97.5095 44.7667 94.9761 46.5 92.5095 48.1C90.1095 49.6333 87.7428 51.5 85.4095 53.7C83.1428 55.9 81.4095 58.1667 80.2095 60.5Z" fill="#EBC981"/>
</svg>
