<svg width="113" height="72" viewBox="0 0 113 72" fill="none" xmlns="http://www.w3.org/2000/svg">
<path d="M42.3 55.3C45.7667 50.7667 47.5 44.3333 47.5 36C47.5 27.6667 45.7667 21.2667 42.3 16.8C38.8333 12.2667 34.5667 10 29.5 10C24.4333 10 20.1667 12.2667 16.7 16.8C13.2333 21.2667 11.5 27.6667 11.5 36C11.5 44.3333 13.2333 50.7667 16.7 55.3C20.1667 59.7667 24.4333 62 29.5 62C34.5667 62 38.8333 59.7667 42.3 55.3ZM50.2 62.4C44.6667 68.8 37.7667 72 29.5 72C21.2333 72 14.3333 68.8 8.8 62.4C3.26667 55.9333 0.5 47.1333 0.5 36C0.5 24.8667 3.26667 16.1 8.8 9.7C14.3333 3.23333 21.2333 -3.8147e-06 29.5 -3.8147e-06C37.7667 -3.8147e-06 44.6667 3.23333 50.2 9.7C55.7333 16.1 58.5 24.8667 58.5 36C58.5 47.1333 55.7333 55.9333 50.2 62.4ZM63.0156 61.5L70.5156 54C71.5823 55.4 72.9823 56.7333 74.7156 58C78.449 60.6667 82.7156 62 87.5156 62C91.9156 62 95.349 60.9333 97.8156 58.8C100.282 56.6667 101.516 53.9 101.516 50.5C101.516 47.3667 100.282 44.7667 97.8156 42.7C95.349 40.5667 91.9156 39.5 87.5156 39.5H80.0156V29H87.5156C91.249 29 94.0823 28.1333 96.0156 26.4C98.0156 24.6667 99.0156 22.3667 99.0156 19.5C99.0156 16.6333 98.0156 14.3333 96.0156 12.6C94.0823 10.8667 91.249 10 87.5156 10C83.849 10 80.149 11.1667 76.4156 13.5C74.749 14.7 73.449 15.8667 72.5156 17L65.0156 9.5C66.8823 7.63333 68.8156 6.06666 70.8156 4.79999C76.0156 1.6 81.5823 -3.8147e-06 87.5156 -3.8147e-06C94.3156 -3.8147e-06 99.749 1.8 103.816 5.4C107.949 8.93333 110.016 13.3 110.016 18.5C110.016 23.4333 108.249 27.4667 104.716 30.6C103.382 31.8667 101.649 33 99.5156 34C101.982 34.9333 104.149 36.1333 106.016 37.6C110.349 41.2667 112.516 45.7333 112.516 51C112.516 57 110.216 62 105.616 66C101.082 70 95.049 72 87.5156 72C80.5156 72 74.3823 70.2667 69.1156 66.8C66.849 65.4 64.8156 63.6333 63.0156 61.5Z" fill="#EBC981"/>
</svg>
