<svg width="119" height="73" viewBox="0 0 119 73" fill="none" xmlns="http://www.w3.org/2000/svg">
<path d="M42.3 55.8C45.7667 51.2667 47.5 44.8333 47.5 36.5C47.5 28.1667 45.7667 21.7667 42.3 17.3C38.8333 12.7667 34.5667 10.5 29.5 10.5C24.4333 10.5 20.1667 12.7667 16.7 17.3C13.2333 21.7667 11.5 28.1667 11.5 36.5C11.5 44.8333 13.2333 51.2667 16.7 55.8C20.1667 60.2667 24.4333 62.5 29.5 62.5C34.5667 62.5 38.8333 60.2667 42.3 55.8ZM50.2 62.9C44.6667 69.3 37.7667 72.5 29.5 72.5C21.2333 72.5 14.3333 69.3 8.8 62.9C3.26667 56.4333 0.5 47.6333 0.5 36.5C0.5 25.3667 3.26667 16.6 8.8 10.2C14.3333 3.73333 21.2333 0.499996 29.5 0.499996C37.7667 0.499996 44.6667 3.73333 50.2 10.2C55.7333 16.6 58.5 25.3667 58.5 36.5C58.5 47.6333 55.7333 56.4333 50.2 62.9ZM68.043 62L75.543 54.5C76.6096 55.9 78.0096 57.2333 79.743 58.5C83.4763 61.1667 87.743 62.5 92.543 62.5C97.0096 62.5 100.543 61.2667 103.143 58.8C105.743 56.3333 107.043 53.0667 107.043 49C107.043 44.9333 105.743 41.6667 103.143 39.2C100.543 36.7333 97.0096 35.5 92.543 35.5C89.2096 35.5 85.9763 36.6667 82.843 39C81.443 40.2 80.343 41.3667 79.543 42.5L71.543 41.5L74.043 1.5H113.543V12H83.543L82.543 29C83.543 28.3333 84.6096 27.7667 85.743 27.3C88.543 26.1 91.4763 25.5 94.543 25.5C101.343 25.5 106.943 27.7333 111.343 32.2C115.81 36.6 118.043 42.2 118.043 49C118.043 55.8667 115.71 61.5 111.043 65.9C106.376 70.3 100.21 72.5 92.543 72.5C85.543 72.5 79.4096 70.7667 74.143 67.3C71.8763 65.9 69.843 64.1333 68.043 62Z" fill="#EBC981"/>
</svg>
