<svg width="119" height="72" viewBox="0 0 119 72" fill="none" xmlns="http://www.w3.org/2000/svg">
<path d="M42.3 55.3C45.7667 50.7667 47.5 44.3333 47.5 36C47.5 27.6667 45.7667 21.2667 42.3 16.8C38.8333 12.2667 34.5667 10 29.5 10C24.4333 10 20.1667 12.2667 16.7 16.8C13.2333 21.2667 11.5 27.6667 11.5 36C11.5 44.3333 13.2333 50.7667 16.7 55.3C20.1667 59.7667 24.4333 62 29.5 62C34.5667 62 38.8333 59.7667 42.3 55.3ZM50.2 62.4C44.6667 68.8 37.7667 72 29.5 72C21.2333 72 14.3333 68.8 8.8 62.4C3.26667 55.9333 0.5 47.1333 0.5 36C0.5 24.8667 3.26667 16.1 8.8 9.7C14.3333 3.23333 21.2333 -3.8147e-06 29.5 -3.8147e-06C37.7667 -3.8147e-06 44.6667 3.23333 50.2 9.7C55.7333 16.1 58.5 24.8667 58.5 36C58.5 47.1333 55.7333 55.9333 50.2 62.4ZM73.543 33L94.043 0.999995H106.043L90.043 25.5L91.143 25.3C92.543 25.1 93.6763 25 94.543 25C101.276 25 106.943 27.3 111.543 31.9C116.21 36.4333 118.543 41.9667 118.543 48.5C118.543 55.1 116.176 60.6667 111.443 65.2C106.71 69.7333 100.743 72 93.543 72C86.343 72 80.3763 69.7333 75.643 65.2C70.9096 60.6667 68.543 55.1 68.543 48.5C68.543 45.1 69.3763 41.5333 71.043 37.8C71.5763 36.4667 72.4096 34.8667 73.543 33ZM83.543 38.9C80.8763 41.5 79.543 44.7 79.543 48.5C79.543 52.3 80.8763 55.5 83.543 58.1C86.2096 60.7 89.543 62 93.543 62C97.543 62 100.876 60.7 103.543 58.1C106.21 55.5 107.543 52.3 107.543 48.5C107.543 44.7 106.21 41.5 103.543 38.9C100.876 36.3 97.543 35 93.543 35C89.543 35 86.2096 36.3 83.543 38.9Z" fill="#EBC981"/>
</svg>
