<svg width="110" height="72" viewBox="0 0 110 72" fill="none" xmlns="http://www.w3.org/2000/svg">
<path d="M41.9665 55.3C45.4332 50.7667 47.1665 44.3333 47.1665 36C47.1665 27.6667 45.4332 21.2667 41.9665 16.8C38.4998 12.2667 34.2332 10 29.1665 10C24.0998 10 19.8332 12.2667 16.3665 16.8C12.8998 21.2667 11.1665 27.6667 11.1665 36C11.1665 44.3333 12.8998 50.7667 16.3665 55.3C19.8332 59.7667 24.0998 62 29.1665 62C34.2332 62 38.4998 59.7667 41.9665 55.3ZM49.8665 62.4C44.3332 68.8 37.4332 72 29.1665 72C20.8998 72 13.9998 68.8 8.46651 62.4C2.93317 55.9333 0.166504 47.1333 0.166504 36C0.166504 24.8667 2.93317 16.1 8.46651 9.7C13.9998 3.23333 20.8998 -3.8147e-06 29.1665 -3.8147e-06C37.4332 -3.8147e-06 44.3332 3.23333 49.8665 9.7C55.3998 16.1 58.1665 24.8667 58.1665 36C58.1665 47.1333 55.3998 55.9333 49.8665 62.4ZM68.6821 71L97.6821 11.5H63.6821V0.999995H109.682V11L80.6821 71H68.6821Z" fill="#EBC981"/>
</svg>
