<svg width="120" height="72" viewBox="0 0 120 72" fill="none" xmlns="http://www.w3.org/2000/svg">
<path d="M42.3 55.3C45.7667 50.7667 47.5 44.3333 47.5 36C47.5 27.6667 45.7667 21.2667 42.3 16.8C38.8333 12.2667 34.5667 10 29.5 10C24.4333 10 20.1667 12.2667 16.7 16.8C13.2333 21.2667 11.5 27.6667 11.5 36C11.5 44.3333 13.2333 50.7667 16.7 55.3C20.1667 59.7667 24.4333 62 29.5 62C34.5667 62 38.8333 59.7667 42.3 55.3ZM50.2 62.4C44.6667 68.8 37.7667 72 29.5 72C21.2333 72 14.3333 68.8 8.8 62.4C3.26667 55.9333 0.5 47.1333 0.5 36C0.5 24.8667 3.26667 16.1 8.8 9.7C14.3333 3.23333 21.2333 -3.8147e-06 29.5 -3.8147e-06C37.7667 -3.8147e-06 44.6667 3.23333 50.2 9.7C55.7333 16.1 58.5 24.8667 58.5 36C58.5 47.1333 55.7333 55.9333 50.2 62.4ZM83.743 42.2C81.2763 44.3333 80.043 47.1 80.043 50.5C80.043 53.9 81.2763 56.6667 83.743 58.8C86.2096 60.9333 89.643 62 94.043 62C98.443 62 101.876 60.9333 104.343 58.8C106.81 56.6667 108.043 53.9 108.043 50.5C108.043 47.1 106.81 44.3333 104.343 42.2C101.876 40.0667 98.443 39 94.043 39C89.643 39 86.2096 40.0667 83.743 42.2ZM85.943 12.6C84.0096 14.3333 83.043 16.6333 83.043 19.5C83.043 22.3667 84.0096 24.6667 85.943 26.4C87.8763 28.1333 90.5763 29 94.043 29C97.5096 29 100.21 28.1333 102.143 26.4C104.076 24.6667 105.043 22.3667 105.043 19.5C105.043 16.6333 104.076 14.3333 102.143 12.6C100.21 10.8667 97.5096 10 94.043 10C90.5763 10 87.8763 10.8667 85.943 12.6ZM69.043 51C69.043 45.5333 71.043 41 75.043 37.4C76.7763 35.8 78.7763 34.5 81.043 33.5C79.3096 32.5667 77.8096 31.4333 76.543 30.1C73.543 26.9667 72.043 23.1 72.043 18.5C72.043 13.3667 74.0763 9 78.143 5.4C82.2096 1.8 87.5096 -3.8147e-06 94.043 -3.8147e-06C100.576 -3.8147e-06 105.876 1.8 109.943 5.4C114.01 9 116.043 13.3667 116.043 18.5C116.043 23.1 114.543 26.9667 111.543 30.1C110.276 31.4333 108.776 32.5667 107.043 33.5C109.31 34.5 111.31 35.8 113.043 37.4C117.043 41 119.043 45.5333 119.043 51C119.043 57 116.743 62 112.143 66C107.61 70 101.576 72 94.043 72C86.5096 72 80.443 70 75.843 66C71.3096 62 69.043 57 69.043 51Z" fill="#EBC981"/>
</svg>
