<svg width="22" height="24" viewBox="0 0 22 24" fill="none" xmlns="http://www.w3.org/2000/svg">
<circle cx="11" cy="12" r="10.6526" stroke="#F5F5F5" stroke-width="0.694737"/>
<path d="M11.0001 1.28906V8.81538M11.0001 8.81538H17.079C16.6931 6.49959 14.9948 1.75222 11.2895 1.28906H10.7106C6.658 1.57854 4.92105 7.36801 4.92113 8.81538H11.0001ZM3.18429 4.76275C7.52639 7.07854 15.3422 6.78906 19.1053 4.76275M3.18429 19.2364C7.52639 16.6312 15.6317 17.2101 19.1053 19.2364M11.0001 22.9996V15.1838H17.079C16.7895 16.9206 15.6317 21.8417 11.2895 22.7101H10.7106C6.94744 22.1312 5.40359 17.5961 4.92113 15.1838H10.7106M0.289551 11.9996H3.18429" stroke="#F5F5F5" stroke-width="0.694737"/>
<path d="M21.7107 12H18.8159" stroke="#F5F5F5" stroke-width="0.694737"/>
<rect x="3.2419" y="8.87374" width="15.5158" height="6.25263" rx="0.810526" stroke="#F5F5F5" stroke-width="0.694737"/>
<path d="M5.21045 10.8418L6.15678 13.5581C6.17556 13.612 6.25277 13.6091 6.26742 13.5539C6.48376 12.7389 6.62397 12.2107 6.83955 11.3985C6.85446 11.3423 6.93365 11.3405 6.95085 11.3961L7.62358 13.5684C7.6401 13.6217 7.71517 13.6231 7.73355 13.5703L8.68413 10.8418" stroke="#F5F5F5" stroke-width="0.578947"/>
<path d="M9.26318 10.8418L10.2095 13.5581C10.2283 13.612 10.3055 13.6091 10.3202 13.5539C10.5365 12.7389 10.6767 12.2107 10.8923 11.3985C10.9072 11.3423 10.9864 11.3405 11.0036 11.3961L11.6763 13.5684C11.6928 13.6217 11.7679 13.6231 11.7863 13.5703L12.7369 10.8418" stroke="#F5F5F5" stroke-width="0.578947"/>
<path d="M13.3159 10.8418L14.2622 13.5581C14.281 13.612 14.3582 13.6091 14.3729 13.5539C14.5892 12.7389 14.7294 12.2107 14.945 11.3985C14.9599 11.3423 15.0391 11.3405 15.0563 11.3961L15.729 13.5684C15.7456 13.6217 15.8206 13.6231 15.839 13.5703L16.7896 10.8418" stroke="#F5F5F5" stroke-width="0.578947"/>
</svg>
